<svg width="609" height="382" viewBox="0 0 609 382" fill="none" xmlns="http://www.w3.org/2000/svg">
<g clip-path="url(#clip0_237_272)">
<path d="M591.467 80.1914L430.649 358.728L426.805 365.384C423.41 370.15 419.001 374.144 413.891 377.055C408.707 380.009 402.803 381.846 396.509 382.237H344.841C338.571 381.852 332.689 380.033 327.516 377.101C322.463 374.238 318.091 370.316 314.701 365.636L310.542 358.431L301.351 342.516C303.21 343.568 305.159 344.48 307.183 345.231C311.546 346.846 316.265 347.731 321.191 347.731C335.365 347.731 347.828 340.417 355.012 329.352C355.755 328.207 356.444 327.019 357.073 325.795L357.082 325.777C357.094 325.753 357.106 325.726 357.121 325.701L361.412 318.264L367.767 307.263L370.681 302.214L498.866 80.1914H591.467Z" fill="#577CBF"/>
<path d="M562.084 120.373C562.084 126.974 560.497 133.205 557.685 138.703L555.673 142.185L430.649 358.728L426.805 365.384C423.41 370.15 419.001 374.144 413.891 377.055C408.707 380.009 402.803 381.846 396.509 382.237H344.841C338.571 381.852 332.689 380.033 327.516 377.101C322.463 374.238 318.091 370.316 314.701 365.636L310.542 358.431L301.351 342.516C303.21 343.568 305.159 344.48 307.183 345.231C311.546 346.846 316.265 347.731 321.191 347.731C335.365 347.731 347.828 340.417 355.012 329.352C355.755 328.207 356.444 327.019 357.073 325.795C357.073 325.789 357.079 325.783 357.082 325.777C357.094 325.753 357.106 325.726 357.121 325.701L361.412 318.264L367.767 307.263L370.681 302.214L484.475 105.114L489.877 95.7636L498.866 80.1914H524.868C525.262 80.2215 525.656 80.2546 526.047 80.2967C538.251 81.5808 548.834 88.3083 555.312 98.0101C556.289 99.4717 557.173 100.996 557.955 102.584C560.599 107.949 562.084 113.988 562.084 120.373Z" fill="#E6E6E6"/>
<path d="M609 40.0763C609 45.243 608.029 50.1811 606.254 54.7192L600.182 65.236L591.548 80.1917H591.467L557.685 138.703C560.497 133.206 562.084 126.974 562.084 120.373C562.084 113.772 560.599 107.95 557.955 102.585C557.173 100.997 556.289 99.472 555.312 98.0104C548.834 88.3086 538.251 81.5811 526.047 80.2969C525.656 80.2548 525.262 80.2218 524.868 80.1917C523.851 80.1135 522.823 80.0744 521.785 80.0744C520.748 80.0744 519.719 80.1135 518.703 80.1917H36.4347C15.9904 78.2459 0 61.0317 0 40.0763C0 34.1427 1.28416 28.5069 3.58784 23.4335L7.50348 16.6548C14.0326 7.52445 24.2818 1.23603 36.0378 0H572.962C585.166 1.28415 595.749 8.01165 602.227 17.7134C603.205 19.175 604.089 20.6998 604.871 22.2877C607.514 27.6528 609 33.6916 609 40.0763Z" fill="#B3B3B3"/>
<path d="M242.492 80.1917L209.278 22.6636L206.229 17.3826C199.73 7.85827 189.252 1.26911 177.186 0H84.5579C96.7619 1.28415 107.345 8.01165 113.823 17.7134C114.8 19.175 115.685 20.6998 116.466 22.2877L135.789 55.7598C135.789 55.7598 135.792 55.7598 135.792 55.7628L140.736 64.3248L149.897 80.1917L280.893 307.08L301.35 342.516C307.208 345.836 313.978 347.731 321.19 347.731C335.364 347.731 347.826 340.417 355.011 329.353C355.754 328.207 356.443 327.019 357.071 325.795L357.08 325.777C357.092 325.753 357.104 325.726 357.119 325.702L361.411 318.265L370.68 302.214L242.492 80.1917ZM172.925 80.3751C171.622 80.3751 170.332 80.312 169.06 80.1917H176.792C175.52 80.312 174.23 80.3751 172.925 80.3751Z" fill="#CCCCCC"/>
</g>
<defs>
<clipPath id="clip0_237_272">
<rect width="609" height="382" fill="white"/>
</clipPath>
</defs>
</svg>
